<?xml version="1.0" standalone="no"?>
<!DOCTYPE svg PUBLIC "-//W3C//DTD SVG 20010904//EN"
 "http://www.w3.org/TR/2001/REC-SVG-20010904/DTD/svg10.dtd">
<svg version="1.0" xmlns="http://www.w3.org/2000/svg"
 width="700.000000pt" height="700.000000pt" viewBox="0 0 700.000000 700.000000"
 preserveAspectRatio="xMidYMid meet">
<metadata>
Created by potrace 1.11, written by Peter Selinger 2001-2013
</metadata>
<g transform="translate(0.000000,700.000000) scale(0.100000,-0.100000)"
fill="#000000" stroke="none">
<path d="M2147 6704 c-1 -1 -47 -4 -102 -8 -109 -7 -115 -8 -257 -37 -108 -21
-272 -74 -368 -118 l-64 -29 546 -545 c410 -411 551 -558 569 -594 18 -37 23
-65 23 -123 1 -125 -8 -136 -311 -439 -303 -302 -321 -315 -438 -315 -122 -1
-110 -11 -717 595 l-547 547 -34 -82 c-63 -149 -117 -337 -132 -461 -3 -27 -9
-75 -13 -105 -14 -99 -6 -375 14 -480 2 -14 6 -36 9 -50 143 -782 779 -1396
1570 -1519 140 -21 336 -28 450 -16 181 19 287 42 466 99 l46 14 1169 -1170
c643 -643 1194 -1189 1225 -1213 63 -49 167 -104 244 -128 176 -57 391 -39
559 45 365 182 525 609 369 983 -57 136 -77 157 -1293 1375 l-1179 1181 15 47
c85 260 107 392 108 632 1 102 -2 210 -6 240 -58 451 -250 837 -565 1140 -108
104 -152 140 -271 219 -153 102 -337 188 -520 241 -70 20 -267 61 -280 58 -4
-1 -32 2 -62 5 -52 7 -218 15 -223 11z"/>
</g>
</svg>
